<svg width="17" height="17" viewBox="0 0 17 17" fill="none" xmlns="http://www.w3.org/2000/svg">
<path d="M7.86936 10.3275L7.72322 10.4736L7.72292 10.6803L7.71904 13.3295L7.71831 13.8295L8.21831 13.8302L10.8723 13.8341L11.0799 13.8344L11.2266 13.6877L13.3472 11.5668V14.0834H3.09717V2.58337H13.3472V4.8494L8.72217 9.4746V8.33337V7.83337H8.22217H5.09717H4.59717V8.33337V9.58337V10.0834H5.09717H8.11343L7.86936 10.3275ZM10.5972 5.83337V5.33337H10.0972H5.09717H4.59717V5.83337V7.08337V7.58337H5.09717H10.0972H10.5972V7.08337V5.83337ZM9.97186 11.4069L14.3335 7.04524L14.5103 7.222L10.1492 11.5831L9.9716 11.5828L9.97186 11.4069Z" stroke="white"/>
</svg>
